<mxfile host="app.diagrams.net" modified="2024-03-14T07:56:40.479Z" agent="Mozilla/5.0 (Windows NT 10.0; Win64; x64) AppleWebKit/537.36 (KHTML, like Gecko) Chrome/119.0.6045.160 Safari/537.36" version="23.1.5" etag="0FFKL4Ct_7OBkLPdSBf2" type="github">
  <diagram name="第 1 页" id="ZFBNMosDB5cF0vNC_vOP">
    <mxGraphModel>
      <root>
        <mxCell id="0" />
        <mxCell id="1" parent="0" />
      </root>
    </mxGraphModel>
  </diagram>
</mxfile>
